<?xml version="1.0" standalone="no"?>
<!DOCTYPE svg PUBLIC "-//W3C//DTD SVG 20010904//EN"
 "http://www.w3.org/TR/2001/REC-SVG-20010904/DTD/svg10.dtd">
<svg version="1.0" xmlns="http://www.w3.org/2000/svg"
 width="225.000000pt" height="225.000000pt" viewBox="0 0 225.000000 225.000000"
 preserveAspectRatio="xMidYMid meet">
<metadata>
Created by potrace 1.14, written by Peter Selinger 2001-2017
</metadata>
<g transform="translate(0.000000,225.000000) scale(0.100000,-0.100000)"
fill="#000000" stroke="none">
<path d="M438 2200 c-69 -37 -118 -124 -118 -210 0 -55 10 -81 44 -119 l21
-23 -35 4 c-19 3 -44 9 -55 13 -17 8 -15 2 10 -41 114 -196 395 -472 608 -596
44 -26 61 -48 36 -48 -5 0 -7 5 -3 12 4 7 3 8 -4 4 -7 -4 -12 -14 -12 -22 0
-18 -5 -18 -38 2 -18 11 -14 5 13 -19 22 -20 34 -36 27 -37 -7 0 -10 -4 -7
-10 3 -5 24 -10 46 -10 22 0 50 -5 61 -11 46 -24 275 -2 297 29 3 4 25 20 48
36 53 35 90 84 118 152 12 30 35 63 56 80 62 50 189 178 254 255 58 69 158
210 152 215 -1 2 -21 -3 -44 -9 -55 -14 -63 -4 -28 33 23 25 30 41 33 90 7 98
-42 191 -122 229 -53 26 -82 26 -123 1 -50 -30 -67 -64 -67 -134 1 -99 60
-188 150 -222 24 -9 44 -18 44 -20 0 -3 -28 -46 -61 -97 -68 -102 -142 -198
-186 -240 l-30 -27 -16 57 c-26 95 -87 171 -183 229 -18 11 -18 12 -1 31 22
25 22 30 -4 44 -17 9 -25 7 -46 -13 -21 -20 -36 -23 -116 -26 -96 -4 -174 13
-169 36 3 16 -20 15 -44 -2 -17 -13 -17 -16 -4 -29 27 -26 84 -38 201 -44 98
-5 115 -8 114 -22 0 -9 -5 -22 -9 -30 -7 -10 -3 -12 15 -6 13 4 21 4 17 0 -4
-4 -28 -11 -54 -16 -58 -11 -84 -33 -84 -70 0 -32 40 -69 75 -69 28 0 39 -24
23 -49 -10 -17 -14 -17 -44 -5 -18 8 -55 14 -82 14 -47 0 -50 -1 -56 -31 -10
-53 -7 -87 10 -93 9 -3 37 -6 62 -6 43 -1 45 -2 28 -15 -10 -7 -16 -17 -14
-22 2 -4 -5 -17 -17 -28 -23 -23 -28 -25 -51 -25 -10 0 -14 -5 -10 -15 8 -22
-20 -30 -52 -16 -44 20 -153 97 -218 153 -104 92 -206 213 -298 355 -49 77
-55 93 -31 93 27 0 91 38 118 69 41 49 60 112 55 182 -4 56 -8 65 -41 95 -30
28 -45 34 -79 34 -24 -1 -60 -10 -80 -20z m859 -536 c-3 -3 -12 -4 -19 -1 -8
3 -5 6 6 6 11 1 17 -2 13 -5z m-42 -44 c3 -5 -1 -10 -11 -10 -12 0 -15 -6 -11
-25 4 -23 3 -25 -15 -13 -11 7 -19 16 -19 21 1 4 1 14 1 22 0 17 45 21 55 5z
m-85 -189 c0 -24 -20 -41 -47 -41 -19 0 -23 5 -23 33 0 19 3 36 6 40 11 11 64
-15 64 -32z"/>
<path d="M963 1662 c-21 -3 -23 -9 -23 -63 0 -52 2 -59 20 -59 16 0 20 7 20
35 0 19 4 35 8 35 4 0 23 -16 42 -35 20 -21 44 -35 58 -35 23 0 24 2 18 53 -3
28 -6 58 -6 65 0 6 -9 12 -19 12 -17 0 -19 -5 -14 -35 7 -41 0 -43 -30 -12
-34 35 -50 43 -74 39z"/>
<path d="M370 1645 c0 -5 5 -29 10 -52 21 -91 29 -262 19 -410 -21 -318 -117
-649 -284 -980 -40 -79 -71 -143 -70 -143 5 0 153 235 220 350 129 220 251
494 300 672 9 32 21 60 26 63 43 27 99 -73 99 -176 0 -151 -81 -302 -263 -488
-39 -41 -65 -70 -57 -66 41 23 143 106 213 174 104 100 160 174 205 268 35 73
37 84 37 173 0 81 -4 102 -24 140 -36 69 -109 156 -218 260 -54 52 -124 124
-155 160 -32 36 -58 61 -58 55z"/>
<path d="M1837 1607 c-14 -18 -87 -94 -162 -168 -250 -246 -297 -344 -244
-514 36 -117 88 -196 213 -320 50 -49 120 -112 156 -140 l65 -50 -75 83 c-158
174 -239 331 -240 462 0 135 97 254 123 150 57 -226 185 -503 384 -829 113
-185 131 -208 70 -86 -138 277 -225 544 -267 815 -25 156 -27 416 -5 539 8 47
13 86 11 88 -2 2 -15 -12 -29 -30z"/>
<path d="M883 1475 c-52 -22 -56 -87 -6 -106 37 -14 96 -11 121 7 29 20 28 34
-3 34 -14 0 -25 -4 -25 -9 0 -13 -30 -22 -52 -15 -15 4 -18 13 -16 37 3 36 27
46 64 27 12 -7 31 -9 41 -6 17 7 16 9 -6 27 -27 22 -73 24 -118 4z"/>
<path d="M980 575 c-7 -9 -8 -15 -2 -15 5 0 12 7 16 15 3 8 4 15 2 15 -2 0 -9
-7 -16 -15z"/>
<path d="M871 524 c0 -11 3 -14 6 -6 3 7 2 16 -1 19 -3 4 -6 -2 -5 -13z"/>
<path d="M1070 515 c-7 -9 -10 -18 -7 -21 3 -3 10 4 17 15 13 25 8 27 -10 6z"/>
<path d="M1282 490 c0 -14 2 -19 5 -12 2 6 2 18 0 25 -3 6 -5 1 -5 -13z"/>
<path d="M1330 495 c-6 -8 -10 -19 -8 -24 1 -6 8 1 15 14 13 28 11 31 -7 10z"/>
<path d="M855 491 c-3 -5 -2 -12 3 -15 5 -3 9 1 9 9 0 17 -3 19 -12 6z"/>
<path d="M1190 491 c0 -5 5 -13 10 -16 6 -3 10 -2 10 4 0 5 -4 13 -10 16 -5 3
-10 2 -10 -4z"/>
<path d="M1640 490 c12 -8 12 -11 -3 -28 -9 -10 -17 -22 -17 -27 0 -5 11 6 25
25 14 19 25 34 25 35 0 0 -10 2 -22 2 -17 2 -19 0 -8 -7z"/>
<path d="M1251 474 c0 -11 3 -14 6 -6 3 7 2 16 -1 19 -3 4 -6 -2 -5 -13z"/>
<path d="M900 471 c0 -10 19 -25 25 -20 1 2 -3 10 -11 17 -8 7 -14 8 -14 3z"/>
<path d="M1005 470 c3 -5 8 -10 11 -10 2 0 4 5 4 10 0 6 -5 10 -11 10 -5 0 -7
-4 -4 -10z"/>
<path d="M1551 459 c-13 -10 -19 -19 -14 -19 5 0 15 6 21 12 10 10 15 10 22
-2 8 -13 10 -13 10 2 0 26 -13 28 -39 7z"/>
<path d="M572 440 c0 -14 2 -19 5 -12 2 6 2 18 0 25 -3 6 -5 1 -5 -13z"/>
<path d="M1457 453 c-4 -3 -7 -11 -7 -17 0 -6 5 -5 12 2 6 6 9 14 7 17 -3 3
-9 2 -12 -2z"/>
<path d="M490 435 c0 -8 9 -19 21 -25 29 -16 29 -9 2 17 -16 16 -23 18 -23 8z"/>
<path d="M820 434 c0 -8 5 -12 10 -9 6 4 8 11 5 16 -9 14 -15 11 -15 -7z"/>
<path d="M1565 420 c-3 -5 -1 -10 4 -10 6 0 11 5 11 10 0 6 -2 10 -4 10 -3 0
-8 -4 -11 -10z"/>
<path d="M650 400 c0 -5 5 -10 11 -10 5 0 7 5 4 10 -3 6 -8 10 -11 10 -2 0 -4
-4 -4 -10z"/>
<path d="M610 390 c0 -5 5 -10 11 -10 5 0 7 5 4 10 -3 6 -8 10 -11 10 -2 0 -4
-4 -4 -10z"/>
<path d="M1637 380 c3 -11 9 -20 13 -20 5 0 6 9 3 20 -3 11 -9 20 -13 20 -5 0
-6 -9 -3 -20z"/>
<path d="M1590 379 c0 -5 5 -7 10 -4 6 3 10 8 10 11 0 2 -4 4 -10 4 -5 0 -10
-5 -10 -11z"/>
<path d="M501 364 c0 -11 3 -14 6 -6 3 7 2 16 -1 19 -3 4 -6 -2 -5 -13z"/>
</g>
</svg>
